<svg width="48" height="48" viewBox="0 0 48 48" fill="none" xmlns="http://www.w3.org/2000/svg">
  <rect width="48" height="48" rx="4" fill="#EBEBEB" />
  <path
    d="M23.731 13.1621C25.0059 13.4941 26.3076 12.7305 26.6377 11.458C26.9717 10.1846 26.21 8.88281 24.938 8.54882C23.6626 8.21682 22.3589 8.98052 22.0308 10.2529C21.6973 11.5283 22.4546 12.8262 23.731 13.1621Z"
    fill="#292929"
  />
  <path
    d="M23.4712 29.4385L23.9712 31.9355C24.0278 31.8418 24.0884 31.75 24.1235 31.6436L25.6699 27.0078H22.8037L22.6069 27.6035L23.3076 28.9678C23.3833 29.1162 23.438 29.2744 23.4712 29.4385Z"
    fill="#292929"
  />
  <path
    d="M34.2529 27.1758C33.5967 27.1758 32.9678 27.2871 32.3779 27.4883L31.041 22.8701C30.9668 22.624 30.7422 22.4561 30.4883 22.4561H29.0156C28.9297 22.3154 28.8233 22.1904 28.6787 22.0947L25.6934 20.1582L24.6743 15.1973C24.6743 15.1973 24.6665 15.1758 24.6509 15.1445C24.4927 14.502 24.0864 13.9258 23.4536 13.5996C22.8233 13.2734 22.1148 13.2676 21.502 13.5059C21.4902 13.5098 21.4785 13.5156 21.4668 13.5195C20.959 13.7266 20.5137 14.0996 20.2402 14.625L16.5664 21.7539C16.1885 22.4834 16.2275 23.3174 16.5908 23.9873C16.3633 23.9619 16.1817 24.0264 16.0547 24.0947C15.8457 24.21 15.4981 24.5088 15.959 25.1963C16.419 25.8848 16.8701 25.8281 17.3921 25.8281L17.9263 25.7402H18.0845L18.354 26.2637L17.0337 28.0215C16.1465 27.4805 15.1079 27.1621 13.9946 27.1621C10.7593 27.1621 8.12842 29.7939 8.12842 33.0273C8.12842 36.2607 10.7593 38.8926 13.9946 38.8926C16.4805 38.8926 18.6055 37.335 19.459 35.1455L21.4961 35.7139L21.502 35.7568C21.6328 36.4033 22.1987 36.8506 22.833 36.8506C22.9209 36.8506 23.0127 36.8408 23.1006 36.8232C23.8384 36.6768 24.313 35.96 24.1665 35.2236L24.104 34.9072L30.8809 27.1211L30.3184 25.4063H21.4766L22.0679 26.5547H29.8496L23.8189 33.4844L23.0283 29.5283C23.0049 29.4053 22.9639 29.2861 22.9053 29.1748L20.5977 24.6865L21.2188 24.9542H26.2412C26.2061 24.4601 25.9053 24.0068 25.4258 23.8018L21.6992 22.2002L23.2041 19.2793L23.2256 19.2285L23.6021 21.0645C23.6646 21.3555 23.8384 21.6113 24.0903 21.7754L27.4658 23.9658C27.6533 24.0869 27.8643 24.1455 28.0713 24.1455C28.4365 24.1455 28.7959 23.9658 29.0039 23.6377C29.0098 23.6279 29.0098 23.6162 29.0176 23.6064H30.0547L31.3203 27.9688C29.5645 28.9854 28.3779 30.8799 28.3779 33.0508C28.3779 36.2881 31.0137 38.9238 34.2529 38.9238C37.4922 38.9238 40.1279 36.2881 40.1279 33.0508C40.1279 29.8115 37.4922 27.1758 34.2529 27.1758ZM13.9946 37.7451C11.3921 37.7451 9.27643 35.6279 9.27643 33.0273C9.27643 30.4268 11.3921 28.3105 13.9946 28.3105C14.8501 28.3105 15.6406 28.5576 16.334 28.9561L13.5352 32.6836C13.4199 32.834 13.3897 33.0332 13.4502 33.2129C13.5137 33.3926 13.6582 33.5293 13.8403 33.582L18.3472 34.8359C17.6372 36.542 15.9551 37.7451 13.9946 37.7451ZM18.6387 33.7266L14.9585 32.7012L17.2583 29.6357C18.1489 30.4951 18.7129 31.6943 18.7129 33.0273C18.7129 33.2676 18.6748 33.4961 18.6387 33.7266ZM21.2422 34.4512L19.7642 34.041C19.8228 33.7109 19.8599 33.373 19.8599 33.0273C19.8599 31.3193 19.1201 29.7842 17.9507 28.7119L18.9375 27.4004L20.4004 30.249L21.2422 34.4512ZM34.2529 37.7744C31.6465 37.7744 29.5274 35.6533 29.5274 33.0508C29.5274 31.4072 30.375 29.958 31.6524 29.1123L32.2959 31.3369C33.0908 33.4316 33.9834 33.6172 34.2373 33.625C34.2412 33.625 34.249 33.625 34.2529 33.625C34.5654 33.625 34.8604 33.3828 34.8701 33.0703C34.8799 32.752 34.6709 32.4941 34.3525 32.4863C34.3467 32.4844 33.8955 32.3125 33.3877 30.9736L32.7022 28.6084C33.1904 28.4375 33.708 28.3262 34.2529 28.3262C36.8574 28.3262 38.9795 30.4443 38.9795 33.0508C38.9795 35.6533 36.8574 37.7744 34.2529 37.7744Z"
    fill="#292929"
  />
</svg>
