<svg width="48" height="48" viewBox="0 0 48 48" fill="none" xmlns="http://www.w3.org/2000/svg">
  <rect width="48" height="48" rx="4" fill="#EBEBEB" />
  <path
    d="M33.0739 23.1738L29.4391 20.7442L27.1451 16.1016C26.6363 15.0703 26.1861 14.4727 25.2184 14.2578C24.4684 14.0918 23.7223 14.2774 23.1372 14.6934C23.1207 14.7051 23.1021 14.7149 23.0865 14.7266L17.6499 19.0332C17.4293 19.2109 17.275 19.4609 17.2164 19.7383L16.1734 24.7559C16.0386 25.4121 16.4606 26.0547 17.1188 26.1914C17.2018 26.209 17.2848 26.2168 17.3659 26.2168C17.9303 26.2168 18.4352 25.8223 18.5543 25.25L19.5065 20.6641L21.4479 19.127C21.4479 19.127 20.1929 24.7871 20.1929 24.791L18.7028 31.5098L15.2477 37.2559C14.7545 38.0781 15.0211 39.1426 15.8414 39.6367C16.1217 39.8047 16.4303 39.8867 16.7339 39.8867C17.3208 39.8867 17.8981 39.5859 18.2223 39.0449L21.8247 33.0567C21.9204 32.8965 21.9908 32.7207 22.0309 32.5391L23.0455 27.959L26.8931 32.4024L28.0934 38.4863C28.2565 39.3125 28.983 39.8867 29.7946 39.8867C29.9059 39.8867 30.0191 39.875 30.1333 39.8535C31.0728 39.668 31.6841 38.7559 31.4986 37.8145L30.2106 31.2774C30.153 30.9824 30.0181 30.707 29.819 30.4785L25.3981 25.3711L26.526 20.332L27.4048 22.1113C27.5005 22.3047 27.6421 22.4668 27.8199 22.5859L31.7261 25.1934C32.2837 25.5664 33.0396 25.416 33.4097 24.8574C33.7837 24.2988 33.6324 23.543 33.0739 23.1738Z"
    fill="#292929"
  />
  <path
    d="M26.0065 13.207C27.4443 13.207 28.61 12.0414 28.61 10.6035C28.61 9.16563 27.4443 8 26.0065 8C24.5686 8 23.403 9.16563 23.403 10.6035C23.403 12.0414 24.5686 13.207 26.0065 13.207Z"
    fill="#292929"
  />
</svg>
